<svg xmlns="http://www.w3.org/2000/svg" xmlns:xlink="http://www.w3.org/1999/xlink" width="923" height="303" viewBox="0 0 923 303" version="1.1">
    <title>bgr</title>
    <defs>
        <linearGradient x1="4.17553855%" y1="90.8704294%" x2="100%" y2="0.424626528%" id="linearGradient-1">
            <stop stop-color="#E63323" offset="0%"/>
            <stop stop-color="#261B62" stop-opacity="0.345225087" offset="100%"/>
        </linearGradient>
        <linearGradient x1="52.0966152%" y1="107.720712%" x2="52.0966152%" y2="-3.41485568%" id="linearGradient-2">
            <stop stop-color="#261B62" offset="0%"/>
            <stop stop-color="#E63323" offset="100%"/>
        </linearGradient>
    </defs>
    <g id="02" stroke="none" stroke-width="1" fill="none" fill-rule="evenodd">
        <g id="egd-nove_pripojeni-zadost" transform="translate(-757.000000, -81.000000)">
            <g id="bgr" transform="translate(0.000000, 81.000000)">
                <g id="Group" transform="translate(733.023034, -381.000000)">
                    <path d="M479.98483,285.968297 C494.671723,300.592694 494.671723,324.169839 479.98483,338.796381 L320.06686,498.031703 C305.379966,512.656099 281.702064,512.656099 267.01517,498.031703 C252.328277,483.407306 252.328277,459.828015 267.01517,445.203619 L426.930985,285.968297 C441.617878,271.343901 465.297936,271.343901 479.98483,285.968297" id="Fill-106" fill="url(#linearGradient-1)"/>
                    <path d="M696.98483,267.968297 C711.671723,282.592694 711.671723,306.169839 696.98483,320.796381 L537.06686,480.031703 C522.379966,494.656099 498.702064,494.656099 484.01517,480.031703 C469.328277,465.407306 469.328277,441.828015 484.01517,427.203619 L643.930985,267.968297 C658.617878,253.343901 682.297936,253.343901 696.98483,267.968297" id="Fill-106-Copy-3" fill="url(#linearGradient-1)" transform="translate(590.500000, 374.000000) scale(-1, -1) translate(-590.500000, -374.000000) "/>
                    <path d="M670.98483,489.968297 C685.671723,504.592694 685.671723,528.169839 670.98483,542.796381 L511.06686,702.031703 C496.379966,716.656099 472.702064,716.656099 458.01517,702.031703 C443.328277,687.407306 443.328277,663.828015 458.01517,649.203619 L617.930985,489.968297 C632.617878,475.343901 656.297936,475.343901 670.98483,489.968297" id="Fill-106-Copy-6" fill="url(#linearGradient-1)" transform="translate(564.500000, 596.000000) scale(-1, -1) translate(-564.500000, -596.000000) "/>
                    <path d="M931.98483,230.968297 C946.671723,245.592694 946.671723,269.169839 931.98483,283.796381 L772.06686,443.031703 C757.379966,457.656099 733.702064,457.656099 719.01517,443.031703 C704.328277,428.407306 704.328277,404.828015 719.01517,390.203619 L878.930985,230.968297 C893.617878,216.343901 917.297936,216.343901 931.98483,230.968297" id="Fill-106-Copy-7" fill="url(#linearGradient-1)"/>
                    <path d="M891.98483,465.968297 C906.671723,480.592694 906.671723,504.169839 891.98483,518.796381 L732.06686,678.031703 C717.379966,692.656099 693.702064,692.656099 679.01517,678.031703 C664.328277,663.407306 664.328277,639.828015 679.01517,625.203619 L838.930985,465.968297 C853.617878,451.343901 877.297936,451.343901 891.98483,465.968297" id="Fill-106-Copy-8" fill="url(#linearGradient-1)"/>
                    <path d="M446.98483,519.968297 C461.671723,534.592694 461.671723,558.169839 446.98483,572.796381 L287.06686,732.031703 C272.379966,746.656099 248.702064,746.656099 234.01517,732.031703 C219.328277,717.407306 219.328277,693.828015 234.01517,679.203619 L393.930985,519.968297 C408.617878,505.343901 432.297936,505.343901 446.98483,519.968297" id="Fill-106-Copy-5" fill="url(#linearGradient-1)"/>
                    <path d="M223.98483,590.796381 L64.0668603,750.031703 C49.3799664,764.656099 25.7020643,764.656099 11.0151704,750.031703 C-3.67172347,735.407306 -3.67172347,711.828015 11.0151704,697.203619 L170.930985,537.968297 C185.617878,523.343901 209.297936,523.343901 223.98483,537.968297 C238.671723,552.592694 238.671723,576.169839 223.98483,590.796381 Z" id="Fill-106-Copy-2" fill="url(#linearGradient-1)" transform="translate(117.500000, 644.000000) scale(-1, -1) translate(-117.500000, -644.000000) "/>
                    <path d="M1154.98483,201.968297 C1169.67172,216.592694 1169.67172,240.169839 1154.98483,254.796381 L995.069015,414.031703 C980.382122,428.656099 956.702064,428.656099 942.01517,414.031703 C927.328277,399.407306 927.328277,375.828015 942.01517,361.203619 L1101.93098,201.968297 C1116.62003,187.343901 1140.29794,187.343901 1154.98483,201.968297" id="Fill-118" fill="url(#linearGradient-2)"/>
                    <path d="M1106.98483,450.968297 C1121.67172,465.592694 1121.67172,489.169839 1106.98483,503.796381 L947.06686,663.031703 C932.379966,677.656099 908.702064,677.656099 894.01517,663.031703 C879.328277,648.407306 879.328277,624.828015 894.01517,610.203619 L1053.93098,450.968297 C1068.61788,436.343901 1092.29794,436.343901 1106.98483,450.968297" id="Fill-106-Copy-9" fill="url(#linearGradient-1)" transform="translate(1000.500000, 557.000000) scale(-1, -1) translate(-1000.500000, -557.000000) "/>
                </g>
            </g>
        </g>
    </g>
</svg>