<svg xmlns:xlink="http://www.w3.org/1999/xlink" xmlns="http://www.w3.org/2000/svg" class="site-header__colophon-logo-image" title="EG.D Logo" aria-hidden="true" style="position: absolute; width: 0px; height: 0px; overflow: hidden;" width="88"  height="40" ><defs><symbol id="egd-logo" viewBox="0 0 88 40"><path d="M24.462 21.6c.061-.554.092-1.17.092-1.723 0-6.8-4.308-12.615-12.092-12.615C5.6 7.262 0 12.554 0 19.477c0 6.615 4.862 12.738 12.8 12.738 5.262 0 9.354-3.138 11.138-6.584l-5.753-1.293c-1.354 1.416-3.231 2.093-5.077 2.093-2.831 0-5.508-1.662-6.062-4.862h17.416v.031zM7.169 16.83c.923-2.676 3.293-4.06 5.57-4.06 2.184 0 4.307 1.322 4.953 4.06H7.17zM87.231 0h-7.046v8.585a10.684 10.684 0 0 0-5.17-1.323c-6.4 0-12.184 4.923-12.184 12.523 0 7.292 5.477 12.461 12.707 12.461 2.124 0 4.985-.646 7.293-2.37H87.2V0h.03zM75.323 25.446c-3.046 0-5.6-2.554-5.6-5.661 0-3.077 2.585-5.662 5.6-5.662 3.2 0 5.508 2.462 5.508 5.57.03 3.045-2.093 5.753-5.508 5.753m-48.215-7.2c0 6.123 5.261 10.954 10.707 10.954 1.385 0 3.139-.338 4.493-1.077v1.046c0 3.323-2.4 5.046-4.831 5.046-1.815 0-3.63-.953-4.492-2.984l-5.693 1.323c1.477 3.846 5.17 7.261 10.462 7.261 6.83 0 11.077-4.707 11.077-13.107V9.415h-4.277a10.864 10.864 0 0 0-6.462-2.153 10.971 10.971 0 0 0-10.984 10.984m6.492 0c0-2.461 2.03-4.492 4.492-4.492s4.493 2.03 4.493 4.492-2.031 4.492-4.493 4.492c-2.461 0-4.492-2-4.492-4.492m17.938 1.785c0 2.43 1.939 4.369 4.37 4.369 2.43 0 4.4-1.938 4.4-4.37 0-2.43-1.939-4.368-4.37-4.368-2.43 0-4.4 1.938-4.4 4.369"></path></symbol></defs>
        <use xlink:href="#egd-logo" fill="#E13019"></use>
      </svg>